<?xml version="1.0" encoding="utf-8"?>
<!-- Generator: Adobe Illustrator 21.0.0, SVG Export Plug-In . SVG Version: 6.00 Build 0)  -->
<svg version="1.1" id="图层_1" xmlns="http://www.w3.org/2000/svg" xmlns:xlink="http://www.w3.org/1999/xlink" x="0px" y="0px"
	 viewBox="0 0 1024 1024" style="enable-background:new 0 0 1024 1024;" xml:space="preserve">
<style type="text/css">
	.st0{fill-rule:evenodd;clip-rule:evenodd;fill:#727272;}
</style>
<path class="st0" d="M900.5,900.5c-28.7,28.7-75.2,28.7-103.9,0L616.7,720.6c-51.9,32.9-113.3,52.3-179.3,52.3
	C252.2,772.9,102,622.7,102,437.5C102,252.2,252.2,102,437.4,102c185.3,0,335.4,150.2,335.4,335.4c0,66-19.3,127.4-52.3,179.3
	l179.9,179.9C929.2,825.3,929.2,871.8,900.5,900.5z M437.4,213.8c-123.5,0-223.6,100.1-223.6,223.6c0,123.5,100.1,223.6,223.6,223.6
	c123.5,0,223.6-100.1,223.6-223.6C661.1,313.9,561,213.8,437.4,213.8z"/>
</svg>
